<svg width="173" height="108" viewBox="0 0 173 108" fill="none" xmlns="http://www.w3.org/2000/svg">
<path d="M24.2858 0.799805H148.857C161.67 0.799805 172.057 11.187 172.057 24V84C172.057 96.813 161.67 107.2 148.857 107.2H24.2858C11.4728 107.2 1.08557 96.813 1.08557 84V24C1.08557 11.187 11.4728 0.799805 24.2858 0.799805Z" stroke="#F1F1F1" stroke-width="1.6"/>
<path d="M75.7234 65.9429L75.6869 56.9443L84.3024 53.7482L75.626 50.9066L75.4443 42.0406L70.1811 49.194L61.5715 46.5398L66.5692 54.0489L61.691 61.5717L70.1884 58.7555L75.7234 65.9429Z" fill="black"/>
<path d="M76.7993 75.4017H92.231L111.571 54.013L92.1377 32.5981H76.8549L95.0308 53.9815L76.7993 75.4017Z" fill="black"/>
</svg>
