<svg width="173" height="108" viewBox="0 0 173 108" fill="none" xmlns="http://www.w3.org/2000/svg">
<path d="M24.4286 0.799805H149C161.813 0.799805 172.2 11.187 172.2 24V84C172.2 96.813 161.813 107.2 149 107.2H24.4286C11.6156 107.2 1.22839 96.813 1.22839 84V24C1.22839 11.187 11.6156 0.799805 24.4286 0.799805Z" stroke="#F1F1F1" stroke-width="1.6"/>
<g clip-path="url(#clip0_174_235)">
<path d="M113.637 65.872L104.747 41.3974L104.741 41.3812H104.566L102.735 46.4107L99.4028 55.5669L99.395 55.5596C98.2399 54.5405 96.6104 53.9034 94.5582 53.6661L93.9322 53.6015L94.5532 53.5219C97.9375 52.9138 100.213 50.7763 100.213 48.2012C100.213 44.6698 96.8911 42.2049 92.1334 42.2049H82.2343V42.3837H85.1107V60.6309L78.1248 41.3974L78.1187 41.3812H77.9433L76.1127 46.4107L69.0522 65.809L69.0087 65.8141C68.8881 65.8289 68.7687 65.8408 68.6506 65.8497C68.473 65.8636 68.2964 65.872 68.1194 65.872H60.9853L74.5461 42.3837L74.6469 42.2071H58.0615V49.4732H58.2375C58.2687 45.934 60.3298 42.3837 64.8837 42.3837H70.3776L56.7144 66.048H75.1214V59.0866H74.9454C74.9215 62.1713 73.1728 65.1012 69.3702 65.7628L69.2493 65.7834L72.1453 57.8235H80.2578L83.181 65.872H80.2973V66.048H91.6155V65.872H88.7195V53.7313H92.061C95.4615 53.7313 97.4118 55.2506 97.4118 57.8981V60.0517C97.4118 60.2889 97.4279 60.6359 97.4458 60.926V60.9366L95.6497 65.8709H93.3035V66.0468H98.1603V65.8709H95.8391L97.4747 61.3777C97.4781 61.4211 97.4797 61.4473 97.4797 61.4473L97.5248 61.8522L97.5683 62.1201C97.8412 63.7769 98.4749 64.9948 99.4512 65.74L99.5915 65.8419C100.333 66.3576 101.255 66.6188 102.333 66.6188C103.76 66.6188 104.712 66.2629 105.498 65.4253L105.395 65.3284C104.671 65.9967 104.063 66.2674 103.302 66.2674C102.005 66.2674 101.326 64.6941 101.326 63.1426V60.1252C101.333 59.3765 101.215 58.6318 100.979 57.9215L100.947 57.8279V57.8246H106.88L109.804 65.8731H106.92V66.0491H116.714V65.8731L113.637 65.872ZM72.2099 57.6475L76.2063 46.668L80.1938 57.6475H72.2099ZM88.7212 53.5548V42.3837H91.2718C94.679 42.3837 96.4779 44.4092 96.4779 48.239C96.4779 52.3123 95.4453 53.5548 92.061 53.5548H88.7212ZM100.877 57.6475L100.86 57.6041C100.596 56.9618 100.213 56.3759 99.7291 55.8776L99.562 55.7106L99.5442 55.6939L102.827 46.668L106.814 57.6475H100.877Z" fill="black"/>
</g>
<defs>
<clipPath id="clip0_174_235">
<rect width="60" height="25.2376" fill="white" transform="translate(56.7144 41.3812)"/>
</clipPath>
</defs>
</svg>
